:FULLY-SPECIFIED
:FORCE-ALL-JOINTS-BE-3DOF
:DEGREES
204
root -2.89834 16.3096 -36.1129 3.7694 0.662495 -2.91469
lfemur -23.8683 6.70394 -8.1956
ltibia 48.5999 0 0
lfoot -23.7726 0.400569 0
ltoes -9.78508 0 0
rfemur -23.8173 -7.52999 14.638
rtibia 50.6781 0 0
rfoot -27.6023 2.04936 0
rtoes -8.27819 0 0
lowerback 7.29295 1.95439 -1.69658
upperback -3.75171 2.53928 1.3016
thorax -8.1905 1.37415 1.96275
lowerneck -3.4199 -3.91656 -6.54248
upperneck 6.8825 -5.28782 6.02627
head 3.24376 -2.60332 2.95929
lclavicle -1.30427e-14 2.69087e-16 0
lhumerus -26.5643 -1.8741 88.7838
lradius 24.3108 0 0
lwrist -31.3815 0 0
lhand -28.2339 30.1046 0
lfingers 7.12502 0 0
lthumb -1.61185 60.0783 0
rclavicle -1.30427e-14 2.69087e-16 0
rhumerus -32.2409 1.98635 -79.9149
rradius 30.4311 0 0
rwrist 3.13638 0 0
rhand -20.0861 -26.817 0
rfingers 7.12502 0 0
rthumb 6.25667 -56.7046 0
205
root -2.89986 16.3073 -36.1118 3.76904 0.665803 -2.91965
lfemur -23.8868 6.71646 -8.18293
ltibia 48.6423 0 0
lfoot -23.7947 0.399138 0
ltoes -9.80141 0 0
rfemur -23.8333 -7.54988 14.6479
rtibia 50.7193 0 0
rfoot -27.6266 2.05836 0
rtoes -8.28682 0 0
lowerback 7.29213 1.95406 -1.69611
upperback -3.74972 2.53897 1.30261
thorax -8.18789 1.37397 1.96365
lowerneck -3.42796 -3.91825 -6.54129
upperneck 6.8939 -5.29009 6.02563
head 3.2493 -2.60432 2.95869
lclavicle -1.30537e-14 3.83024e-16 0
lhumerus -26.5566 -1.88206 88.7889
lradius 24.3143 0 0
lwrist -31.3777 0 0
lhand -28.2317 30.1096 0
lfingers 7.12502 0 0
lthumb -1.60978 60.0832 0
rclavicle -1.30537e-14 3.83024e-16 0
rhumerus -32.2302 1.99505 -79.9268
rradius 30.4434 0 0
rwrist 3.13027 0 0
rhand -20.0844 -26.8192 0
rfingers 7.12502 0 0
rthumb 6.25831 -56.7067 0
206
root -2.90138 16.305 -36.1106 3.76868 0.66911 -2.9246
lfemur -23.9054 6.72898 -8.17025
ltibia 48.6848 0 0
lfoot -23.8168 0.397708 0
ltoes -9.81773 0 0
rfemur -23.8493 -7.56976 14.6577
rtibia 50.7605 0 0
rfoot -27.6509 2.06737 0
rtoes -8.29546 0 0
lowerback 7.29131 1.95374 -1.69565
upperback -3.74773 2.53866 1.30361
thorax -8.18527 1.37379 1.96455
lowerneck -3.43602 -3.91994 -6.54011
upperneck 6.9053 -5.29236 6.02499
head 3.25484 -2.60532 2.95808
lclavicle -1.30647e-14 4.96962e-16 0
lhumerus -26.5489 -1.89002 88.794
lradius 24.3179 0 0
lwrist -31.374 0 0
lhand -28.2296 30.1145 0
lfingers 7.12502 0 0
lthumb -1.6077 60.0882 0
rclavicle -1.30647e-14 4.96962e-16 0
rhumerus -32.2196 2.00376 -79.9386
rradius 30.4557 0 0
rwrist 3.12415 0 0
rhand -20.0827 -26.8213 0
rfingers 7.12502 0 0
rthumb 6.25995 -56.7088 0
207
root -2.90104 16.303 -36.1104 3.76083 0.664866 -2.92042
lfemur -23.9102 6.73206 -8.174
ltibia 48.7163 0 0
lfoot -23.8337 0.404325 0
ltoes -9.83143 0 0
rfemur -23.8578 -7.58009 14.6492
rtibia 50.7941 0 0
rfoot -27.6681 2.07644 0
rtoes -8.2947 0 0
lowerback 7.30151 1.9536 -1.69701
upperback -3.7437 2.5383 1.30526
thorax -8.187 1.37369 1.96687
lowerneck -3.49212 -3.86189 -6.47969
upperneck 6.95131 -5.21249 5.96405
head 3.27323 -2.5656 2.9299
lclavicle -1.2545e-14 5.22416e-16 0
lhumerus -26.5554 -1.89494 88.7977
lradius 24.3222 0 0
lwrist -31.3562 0 0
lhand -28.2297 30.1218 0
lfingers 7.12502 0 0
lthumb -1.60783 60.0955 0
rclavicle -1.2545e-14 5.22416e-16 0
rhumerus -32.2152 1.99845 -79.9243
rradius 30.4504 0 0
rwrist 3.13655 0 0
rhand -20.0742 -26.8109 0
rfingers 7.12502 0 0
rthumb 6.26813 -56.6982 0
208
root -2.9007 16.3011 -36.1102 3.75298 0.660622 -2.91623
lfemur -23.9149 6.73514 -8.17776
ltibia 48.7478 0 0
lfoot -23.8506 0.410942 0
ltoes -9.84512 0 0
rfemur -23.8662 -7.59043 14.6407
rtibia 50.8277 0 0
rfoot -27.6853 2.0855 0
rtoes -8.29393 0 0
lowerback 7.31171 1.95346 -1.69837
upperback -3.73966 2.53794 1.30691
thorax -8.18872 1.3736 1.96919
lowerneck -3.54822 -3.80383 -6.41928
upperneck 6.99732 -5.13262 5.90312
head 3.29162 -2.52588 2.90172
lclavicle -1.20252e-14 5.4787e-16 0
lhumerus -26.5619 -1.89987 88.8014
lradius 24.3266 0 0
lwrist -31.3384 0 0
lhand -28.2299 30.1292 0
lfingers 7.12502 0 0
lthumb -1.60796 60.1029 0
rclavicle -1.20252e-14 5.4787e-16 0
rhumerus -32.2108 1.99314 -79.91
rradius 30.4452 0 0
rwrist 3.14895 0 0
rhand -20.0658 -26.8005 0
rfingers 7.12502 0 0
rthumb 6.2763 -56.6875 0
209
root -2.90037 16.2991 -36.1099 3.74513 0.656378 -2.91205
lfemur -23.9197 6.73822 -8.18151
ltibia 48.7793 0 0
lfoot -23.8676 0.417559 0
ltoes -9.85882 0 0
rfemur -23.8747 -7.60076 14.6322
rtibia 50.8613 0 0
rfoot -27.7024 2.09457 0
rtoes -8.29317 0 0
lowerback 7.32191 1.95333 -1.69974
upperback -3.73563 2.53758 1.30856
thorax -8.19045 1.3735 1.9715
lowerneck -3.60433 -3.74578 -6.35886
upperneck 7.04333 -5.05275 5.84218
head 3.31002 -2.48616 2.87354
lclavicle -1.15055e-14 5.73324e-16 0
lhumerus -26.5683 -1.90479 88.8051
lradius 24.3309 0 0
lwrist -31.3206 0 0
lhand -28.23 30.1365 0
lfingers 7.12502 0 0
lthumb -1.60809 60.1102 0
rclavicle -1.15055e-14 5.73324e-16 0
rhumerus -32.2064 1.98783 -79.8958
rradius 30.4399 0 0
rwrist 3.16136 0 0
rhand -20.0573 -26.7901 0
rfingers 7.12502 0 0
rthumb 6.28448 -56.6769 0
210
root -2.90003 16.2971 -36.1097 3.73727 0.652134 -2.90786
lfemur -23.9244 6.7413 -8.18527
ltibia 48.8108 0 0
lfoot -23.8845 0.424176 0
ltoes -9.87252 0 0
rfemur -23.8831 -7.61109 14.6236
rtibia 50.8949 0 0
rfoot -27.7196 2.10364 0
rtoes -8.29241 0 0
lowerback 7.33211 1.95319 -1.7011
upperback -3.73159 2.53721 1.31022
thorax -8.19218 1.37341 1.97382
lowerneck -3.66043 -3.68773 -6.29844
upperneck 7.08934 -4.97288 5.78125
head 3.32841 -2.44644 2.84536
lclavicle -1.09858e-14 5.98778e-16 0
lhumerus -26.5748 -1.90971 88.8088
lradius 24.3352 0 0
lwrist -31.3029 0 0
lhand -28.2301 30.1439 0
lfingers 7.12502 0 0
lthumb -1.60822 60.1176 0
rclavicle -1.09858e-14 5.98778e-16 0
rhumerus -32.202 1.98252 -79.8815
rradius 30.4346 0 0
rwrist 3.17376 0 0
rhand -20.0488 -26.7798 0
rfingers 7.12502 0 0
rthumb 6.29265 -56.6663 0
211
root -2.89969 16.2952 -36.1095 3.72942 0.64789 -2.90368
lfemur -23.9292 6.74437 -8.18902
ltibia 48.8423 0 0
lfoot -23.9014 0.430793 0
ltoes -9.88621 0 0
rfemur -23.8916 -7.62143 14.6151
rtibia 50.9284 0 0
rfoot -27.7368 2.1127 0
rtoes -8.29164 0 0
lowerback 7.34231 1.95305 -1.70246
upperback -3.72756 2.53685 1.31187
thorax -8.1939 1.37331 1.97614
lowerneck -3.71653 -3.62968 -6.23803
upperneck 7.13534 -4.89301 5.72031
head 3.3468 -2.40671 2.81718
lclavicle -1.04661e-14 6.24232e-16 0
lhumerus -26.5813 -1.91463 88.8125
lradius 24.3395 0 0
lwrist -31.2851 0 0
lhand -28.2303 30.1512 0
lfingers 7.12502 0 0
lthumb -1.60835 60.1249 0
rclavicle -1.04661e-14 6.24232e-16 0
rhumerus -32.1976 1.97721 -79.8672
rradius 30.4293 0 0
rwrist 3.18616 0 0
rhand -20.0404 -26.7694 0
rfingers 7.12502 0 0
rthumb 6.30083 -56.6556 0
212
root -2.89935 16.2932 -36.1093 3.72157 0.643646 -2.89949
lfemur -23.934 6.74745 -8.19277
ltibia 48.8739 0 0
lfoot -23.9183 0.43741 0
ltoes -9.89991 0 0
rfemur -23.9 -7.63176 14.6066
rtibia 50.962 0 0
rfoot -27.754 2.12177 0
rtoes -8.29088 0 0
lowerback 7.35251 1.95291 -1.70382
upperback -3.72353 2.53649 1.31352
thorax -8.19563 1.37322 1.97846
lowerneck -3.77263 -3.57162 -6.17761
upperneck 7.18135 -4.81314 5.65938
head 3.36519 -2.36699 2.789
lclavicle -9.94633e-15 6.49687e-16 0
lhumerus -26.5878 -1.91956 88.8162
lradius 24.3439 0 0
lwrist -31.2673 0 0
lhand -28.2304 30.1586 0
lfingers 7.12502 0 0
lthumb -1.60848 60.1322 0
rclavicle -9.94633e-15 6.49687e-16 0
rhumerus -32.1931 1.9719 -79.8529
rradius 30.4241 0 0
rwrist 3.19856 0 0
rhand -20.0319 -26.759 0
rfingers 7.12502 0 0
rthumb 6.30901 -56.645 0
213
root -2.89901 16.2913 -36.109 3.71372 0.639402 -2.89531
lfemur -23.9387 6.75053 -8.19653
ltibia 48.9054 0 0
lfoot -23.9353 0.444026 0
ltoes -9.91361 0 0
rfemur -23.9085 -7.64209 14.5981
rtibia 50.9956 0 0
rfoot -27.7711 2.13084 0
rtoes -8.29012 0 0
lowerback 7.36272 1.95277 -1.70519
upperback -3.71949 2.53613 1.31517
thorax -8.19736 1.37312 1.98078
lowerneck -3.82873 -3.51357 -6.1172
upperneck 7.22736 -4.73327 5.59844
head 3.38359 -2.32727 2.76082
lclavicle -9.42661e-15 6.75141e-16 0
lhumerus -26.5943 -1.92448 88.8198
lradius 24.3482 0 0
lwrist -31.2495 0 0
lhand -28.2305 30.1659 0
lfingers 7.12502 0 0
lthumb -1.60861 60.1396 0
rclavicle -9.42661e-15 6.75141e-16 0
rhumerus -32.1887 1.96659 -79.8387
rradius 30.4188 0 0
rwrist 3.21097 0 0
rhand -20.0234 -26.7486 0
rfingers 7.12502 0 0
rthumb 6.31718 -56.6344 0
214
root -2.89867 16.2893 -36.1088 3.70587 0.635158 -2.89112
lfemur -23.9435 6.75361 -8.20028
ltibia 48.9369 0 0
lfoot -23.9522 0.450643 0
ltoes -9.9273 0 0
rfemur -23.9169 -7.65243 14.5896
rtibia 51.0292 0 0
rfoot -27.7883 2.1399 0
rtoes -8.28935 0 0
lowerback 7.37292 1.95264 -1.70655
upperback -3.71546 2.53577 1.31682
thorax -8.19908 1.37303 1.98309
lowerneck -3.88484 -3.45552 -6.05678
upperneck 7.27337 -4.6534 5.53751
head 3.40198 -2.28755 2.73264
lclavicle -8.90688e-15 7.00595e-16 0
lhumerus -26.6007 -1.9294 88.8235
lradius 24.3525 0 0
lwrist -31.2317 0 0
lhand -28.2307 30.1733 0
lfingers 7.12502 0 0
lthumb -1.60874 60.1469 0
rclavicle -8.90688e-15 7.00595e-16 0
rhumerus -32.1843 1.96128 -79.8244
rradius 30.4135 0 0
rwrist 3.22337 0 0
rhand -20.015 -26.7382 0
rfingers 7.12502 0 0
rthumb 6.32536 -56.6237 0
215
root -2.89834 16.2873 -36.1086 3.69802 0.630914 -2.88694
lfemur -23.9482 6.75669 -8.20404
ltibia 48.9684 0 0
lfoot -23.9691 0.45726 0
ltoes -9.941 0 0
rfemur -23.9254 -7.66276 14.5811
rtibia 51.0628 0 0
rfoot -27.8055 2.14897 0
rtoes -8.28859 0 0
lowerback 7.38312 1.9525 -1.70791
upperback -3.71142 2.53541 1.31847
thorax -8.20081 1.37293 1.98541
lowerneck -3.94094 -3.39747 -5.99636
upperneck 7.31938 -4.57353 5.47657
head 3.42037 -2.24783 2.70446
lclavicle -8.38715e-15 7.26049e-16 0
lhumerus -26.6072 -1.93433 88.8272
lradius 24.3568 0 0
lwrist -31.2139 0 0
lhand -28.2308 30.1806 0
lfingers 7.12502 0 0
lthumb -1.60887 60.1543 0
rclavicle -8.38715e-15 7.26049e-16 0
rhumerus -32.1799 1.95597 -79.8101
rradius 30.4083 0 0
rwrist 3.23577 0 0
rhand -20.0065 -26.7278 0
rfingers 7.12502 0 0
rthumb 6.33353 -56.6131 0
216
root -2.898 16.2854 -36.1084 3.69017 0.62667 -2.88276
lfemur -23.953 6.75977 -8.20779
ltibia 48.9999 0 0
lfoot -23.986 0.463877 0
ltoes -9.9547 0 0
rfemur -23.9339 -7.67309 14.5726
rtibia 51.0964 0 0
rfoot -27.8227 2.15804 0
rtoes -8.28783 0 0
lowerback 7.39332 1.95236 -1.70927
upperback -3.70739 2.53505 1.32012
thorax -8.20254 1.37284 1.98773
lowerneck -3.99704 -3.33941 -5.93595
upperneck 7.36539 -4.49366 5.41563
head 3.43876 -2.20811 2.67628
lclavicle -7.86742e-15 7.51503e-16 0
lhumerus -26.6137 -1.93925 88.8309
lradius 24.3612 0 0
lwrist -31.1961 0 0
lhand -28.2309 30.1879 0
lfingers 7.12502 0 0
lthumb -1.609 60.1616 0
rclavicle -7.86742e-15 7.51503e-16 0
rhumerus -32.1755 1.95066 -79.7958
rradius 30.403 0 0
rwrist 3.24817 0 0
rhand -19.998 -26.7174 0
rfingers 7.12502 0 0
rthumb 6.34171 -56.6025 0
